#!OML:ASF C:\Vicon Data\Big\jianyuan-13\jianyuan\Session 1\Capture.male.ASF
:FULLY-SPECIFIED
:DEGREES
1
root -7.733500 17.494500 -23.999400 8.807819 14.506925 2.453967
lowerback -14.740400 -5.770360 -4.463870 
upperback -0.967580 -6.976860 0.963935 
thorax 7.864060 -3.549970 2.017600 
lowerneck -3.724560 -0.277556 4.840130 
upperneck -0.569348 -0.531207 -6.266520 
head 0.436243 -0.320761 -2.849020 
rclavicle 0.000000 0.000000 
rhumerus -62.931500 -22.187900 -65.324500 
rradius 25.882400 
rwrist 36.966500 
rhand -13.831900 -15.855200 
rfingers 0.000000 
rthumb 12.291200 -45.474000 
lclavicle 0.000000 0.000000 
lhumerus -7.986440 -9.484140 94.926600 
lradius 57.058700 
lwrist -23.604900 
lhand -16.201400 1.425920 
lfingers 0.000000 
lthumb 10.005900 31.168100 
rfemur -39.074200 1.683850 11.697200 
rtibia 25.389400 
rfoot -5.686630 -20.968500 
rtoes -13.342900 
lfemur 13.777800 -7.186000 -17.713100 
ltibia 19.606600 
lfoot -5.504960 -2.272090 
ltoes -56.136800 
2
root -7.746721 17.492563 -23.871247 8.950096 14.131882 2.245882
lowerback -14.783122 -5.564919 -4.068530 
upperback -0.952813 -6.770159 0.983502 
thorax 7.842988 -3.436817 1.864648 
lowerneck -4.098736 -0.227753 4.835740 
upperneck -0.550350 -0.479357 -6.041612 
head 0.510370 -0.298717 -2.774073 
rclavicle 0.000000 0.000000 
rhumerus -62.211293 -22.340219 -65.591341 
rradius 25.862800 
rwrist 37.094628 
rhand -14.083999 -15.933871 
rfingers 0.000000 
rthumb 12.048134 -45.567046 
lclavicle 0.000000 0.000000 
lhumerus -8.591740 -8.978925 95.053924 
lradius 56.638129 
lwrist -23.790664 
lhand -16.745670 1.501255 
lfingers 0.000000 
lthumb 9.480736 31.267950 
rfemur -39.322380 1.012953 12.488244 
rtibia 25.871309 
rfoot -4.000443 -20.370669 
rtoes -12.483060 
lfemur 13.873816 -7.055892 -17.450779 
ltibia 19.730884 
lfoot -4.676385 -1.914261 
ltoes -56.052954 
3
root -7.754375 17.491472 -23.805397 9.046094 13.943931 2.118606
lowerback -14.832605 -5.485611 -3.838578 
upperback -0.947499 -6.703934 1.016234 
thorax 7.848464 -3.397503 1.783452 
lowerneck -4.282203 -0.209185 4.954216 
upperneck -0.552945 -0.466220 -6.134595 
head 0.542547 -0.295795 -2.828813 
rclavicle 0.000000 0.000000 
rhumerus -61.748465 -22.347009 -65.788703 
rradius 25.839277 
rwrist 37.015781 
rhand -14.133092 -15.996219 
rfingers 0.000000 
rthumb 12.000838 -45.632156 
lclavicle 0.000000 0.000000 
lhumerus -8.932423 -8.743917 95.048492 
lradius 56.500306 
lwrist -23.673727 
lhand -16.938794 1.588553 
lfingers 0.000000 
lthumb 9.294373 31.363674 
rfemur -39.509398 0.432435 13.078366 
rtibia 26.214265 
rfoot -3.000327 -19.690204 
rtoes -14.104351 
lfemur 13.847766 -6.892161 -17.243122 
ltibia 19.840147 
lfoot -4.152419 -1.801995 
ltoes -56.154359 
4
root -7.767818 17.489906 -23.734966 9.094089 13.635489 1.942459
lowerback -14.854124 -5.407762 -3.590725 
upperback -0.975626 -6.647289 1.088452 
thorax 7.806192 -3.362434 1.736233 
lowerneck -4.244675 -0.163157 4.881232 
upperneck -0.655508 -0.403727 -6.131493 
head 0.507122 -0.263584 -2.812065 
rclavicle 0.000000 0.000000 
rhumerus -61.290123 -22.166248 -66.040026 
rradius 25.781926 
rwrist 36.979621 
rhand -14.231449 -16.091113 
rfingers 0.000000 
rthumb 11.905984 -45.732596 
lclavicle 0.000000 0.000000 
lhumerus -9.464312 -8.559220 94.987683 
lradius 56.499570 
lwrist -23.251350 
lhand -17.160535 1.816183 
lfingers 0.000000 
lthumb 9.080402 31.600722 
rfemur -39.696196 -0.090159 13.786856 
rtibia 26.630471 
rfoot -2.066741 -18.671019 
rtoes -16.689282 
lfemur 13.865802 -6.494875 -16.942517 
ltibia 19.983250 
lfoot -3.519506 -1.808219 
ltoes -56.517229 
5
root -7.776710 17.488797 -23.665617 9.188205 13.344388 1.763127
lowerback -14.920268 -5.324872 -3.303113 
upperback -1.011183 -6.589534 1.168918 
thorax 7.777525 -3.325433 1.672401 
lowerneck -4.252850 -0.104082 4.711190 
upperneck -0.760044 -0.321682 -6.038495 
head 0.479823 -0.221290 -2.746737 
rclavicle 0.000000 0.000000 
rhumerus -60.878762 -22.137414 -66.062682 
rradius 25.658748 
rwrist 37.410310 
rhand -14.441367 -16.013641 
rfingers 0.000000 
rthumb 11.703512 -45.666690 
lclavicle 0.000000 0.000000 
lhumerus -9.851972 -7.983758 95.075690 
lradius 56.195782 
lwrist -23.562426 
lhand -17.592571 1.962286 
lfingers 0.000000 
lthumb 8.663504 31.764459 
rfemur -39.976061 -0.703799 14.527275 
rtibia 27.095856 
rfoot -1.584087 -17.364613 
rtoes -18.741334 
lfemur 13.807025 -6.106946 -16.647522 
ltibia 20.163780 
lfoot -2.960236 -1.803268 
ltoes -56.942136 
6
root -7.786816 17.487735 -23.601487 9.275941 13.051006 1.613376
lowerback -14.956407 -5.222050 -3.095515 
upperback -1.034001 -6.492307 1.237084 
thorax 7.751505 -3.272212 1.650440 
lowerneck -4.308312 -0.067283 4.670581 
upperneck -0.844773 -0.275766 -6.045110 
head 0.465284 -0.198840 -2.740427 
rclavicle 0.000000 0.000000 
rhumerus -60.437896 -22.207438 -66.107915 
rradius 25.573317 
rwrist 37.318443 
rhand -14.633634 -16.050074 
rfingers 0.000000 
rthumb 11.518128 -45.713578 
lclavicle 0.000000 0.000000 
lhumerus -10.164601 -7.308319 95.222791 
lradius 55.808290 
lwrist -23.881139 
lhand -17.864892 1.987953 
lfingers 0.000000 
lthumb 8.400708 31.800853 
rfemur -40.274409 -1.175074 15.156079 
rtibia 27.565150 
rfoot -1.329272 -16.254912 
rtoes -19.329725 
lfemur 13.739999 -5.807233 -16.411743 
ltibia 20.369309 
lfoot -2.440361 -1.747309 
ltoes -56.954535 
7
root -7.797113 17.487517 -23.543409 9.335206 12.764474 1.496042
lowerback -14.957348 -5.106493 -2.937579 
upperback -1.042681 -6.368391 1.271102 
thorax 7.721444 -3.207421 1.627852 
lowerneck -4.376402 -0.051220 4.752222 
upperneck -0.897169 -0.262362 -6.105658 
head 0.461615 -0.193644 -2.776170 
rclavicle 0.000000 0.000000 
rhumerus -60.059614 -22.392343 -66.069684 
rradius 25.431286 
rwrist 37.436613 
rhand -14.730420 -16.078562 
rfingers 0.000000 
rthumb 11.424780 -45.747325 
lclavicle 0.000000 0.000000 
lhumerus -10.446735 -6.754003 95.325074 
lradius 55.474917 
lwrist -23.976481 
lhand -18.038574 1.970424 
lfingers 0.000000 
lthumb 8.233097 31.790010 
rfemur -40.528090 -1.492362 15.655451 
rtibia 27.998304 
rfoot -1.094542 -15.332400 
rtoes -19.572927 
lfemur 13.678663 -5.527473 -16.213356 
ltibia 20.607523 
lfoot -1.905660 -1.695017 
ltoes -56.775761 
8
root -7.807335 17.488163 -23.490433 9.366419 12.485543 1.405668
lowerback -14.928544 -4.982202 -2.813197 
upperback -1.039568 -6.225654 1.272510 
thorax 7.686608 -3.134274 1.595269 
lowerneck -4.447011 -0.051652 4.931538 
upperneck -0.920511 -0.274554 -6.199808 
head 0.466353 -0.201884 -2.842278 
rclavicle 0.000000 0.000000 
rhumerus -59.752712 -22.674122 -65.940000 
rradius 25.222229 
rwrist 37.888893 
rhand -14.732293 -16.073395 
rfingers 0.000000 
rthumb 11.422907 -45.742287 
lclavicle 0.000000 0.000000 
lhumerus -10.714047 -6.347410 95.367764 
lradius 55.216259 
lwrist -23.838853 
lhand -18.145783 1.935058 
lfingers 0.000000 
lthumb 8.129634 31.758687 
rfemur -40.731399 -1.681999 16.045731 
rtibia 28.393169 
rfoot -0.829748 -14.559785 
rtoes -19.785472 
lfemur 13.625059 -5.248678 -16.040465 
ltibia 20.873995 
lfoot -1.346817 -1.657907 
ltoes -56.491140 
